<?xml version="1.0" encoding="utf-8"?>
<!-- Generator: Adobe Illustrator 21.0.0, SVG Export Plug-In . SVG Version: 6.00 Build 0)  -->
<svg version="1.1" id="Layer_1" xmlns="http://www.w3.org/2000/svg" xmlns:xlink="http://www.w3.org/1999/xlink" x="0px" y="0px"
	 viewBox="0 0 22 22" style="enable-background:new 0 0 22 22;" xml:space="preserve">
<style type="text/css">
	.st0{fill:#02578F;}
	.st1{fill:#5BA347;}
	.st2{fill:#4382AC;}
</style>
<g>
	<path class="st0" d="M20.1,17.7c-2.1,2.1-4.6,3.4-7.4,3.9c-2.7,0.6-5.4,0.4-8-0.9c-2.6-1.4-4.2-3.5-4.6-6.7
		c-0.3-2.4,0.3-4.6,1.5-6.6C3.5,4.1,6.3,2,9.7,0.8c0,0,0.1,0,0.1,0C9.7,1.1,9.5,1.1,9.4,1.2c-2.7,2.1-4.2,5-4.2,8.6
		c0,3.9,2.2,7.4,5.5,8.9c3,1.3,6,1,8.8-0.7C19.7,17.9,19.8,17.8,20.1,17.7C20.1,17.6,20.1,17.7,20.1,17.7z"/>
	<path class="st1" d="M16.1,16.3c2.1-2.2,2.8-4.8,2.1-7.8c-0.7-3.1-2.4-5.2-5.3-5.9c-2.1-0.6-4,0.1-5.5,1.9C7.4,4.6,7.3,4.7,7.2,4.8
		c0,0,0,0,0,0c-0.1,0,0-0.1,0-0.2c2-3.6,6.6-5.5,10.3-4.2c3.8,1.4,5.7,5.7,4.3,9.9c-0.9,2.9-2.8,4.8-5.3,6
		C16.4,16.3,16.3,16.4,16.1,16.3z"/>
	<path class="st1" d="M10.3,7.5c1.2,0,2.1,0.3,2.7,1.1c0.9,1.1,0.9,2.7,0.1,4c-1,1.6-3,2.4-4.7,1.8c-1.8-0.6-2.7-2.7-1.7-4.6
		C7.5,8.3,8.9,7.6,10.3,7.5z"/>
	<path class="st2" d="M20.1,17.7C20,17.7,20,17.7,20.1,17.7c0-0.2,0.1-0.3,0.3-0.4C20.3,17.6,20.2,17.7,20.1,17.7z"/>
</g>
</svg>
